# AST/ASF file generated using VICON BodyLanguage
# -----------------------------------------------
:version 1.10
:name VICON
:units
  mass 1.0
  length 0.45
  angle deg
:documentation
   .ast/.asf automatically generated from VICON data using
   VICON BodyBuilder and BodyLanguage model FoxedUp or BRILLIANT.MOD
:root
   order TX TY TZ RX RY RZ
   axis XYZ
   position 0 0 0  
   orientation 0 0 0 
:bonedata
  begin
     id 1 
     name lhipjoint
     direction 0.541323 -0.757556 0.364798 
     length 2.47576 
     axis 0 0 0  XYZ
  end
  begin
     id 2 
     name lfemur
     direction 0.34202 -0.939693 0  
     length 7.46493  
     axis 0 0 20  XYZ
    dof rx ry rz
    limits (-160.0 20.0)
           (-70.0 70.0)
           (-60.0 70.0)
  end
  begin
     id 3 
     name ltibia
     direction 0.34202 -0.939693 0   
     length 7.73805   
     axis 0 0 20   XYZ
    dof rx
    limits (-10.0 170.0)
  end
  begin
     id 4 
     name lfoot
     direction 0.107174 -0.294458 0.949636   
     length 2.25864   
     axis -90 7.62852e-016 20   XYZ
    dof rx rz
    limits (-45.0 90.0)
           (-70.0 20.0)
  end
  begin
     id 5 
     name ltoes
     direction 1.53606e-011 -4.21934e-011 1   
     length 1.12451   
     axis -90 7.62852e-016 20   XYZ
    dof rx
    limits (-90.0 20.0)
  end
  begin
     id 6 
     name rhipjoint
     direction -0.524745 -0.766967 0.36933   
     length 2.44538  
     axis 0 0 0  XYZ 
  end
  begin
     id 7 
     name rfemur
     direction -0.34202 -0.939693 0   
     length 7.61604   
     axis 0 0 -20   XYZ
    dof rx ry rz
    limits (-160.0 20.0)
           (-70.0 70.0)
           (-70.0 60.0)
  end
  begin
     id 8 
     name rtibia
     direction -0.34202 -0.939693 0   
     length 7.61056   
     axis 0 0 -20   XYZ
    dof rx
    limits (-10.0 170.0)
 end
 begin
     id 9 
     name rfoot
     direction -0.12616 -0.346623 0.929482   
     length 2.46372  
     axis -90 -7.62852e-016 -20   XYZ
    dof rx rz
    limits (-45.0 90.0)
           (-20.0 70.0)
  end
  begin
     id 10 
     name rtoes
     direction -1.53531e-011 -4.22004e-011 1   
     length 1.21611   
     axis -90 -7.62852e-016 -20   XYZ
    dof rx
    limits (-90.0 20.0)
  end
  begin
     id 11 
     name lowerback
     direction -0.000778023 0.997293 -0.0735223   
     length 2.06139   
     axis 0 0 0   XYZ
    dof rx ry rz
    limits (-20.0 45.0)
           (-30.0 30.0)
           (-30.0 30.0)
  end
  begin
     id 12 
     name upperback
     direction 0.0222598 0.999722 -0.0078355   
     length 2.06383   
     axis 0 0 0   XYZ
    dof rx ry rz
    limits (-20.0 45.0)
           (-30.0 30.0)
           (-30.0 30.0)
  end
  begin
     id 13 
     name thorax
     direction 0.0219654 0.999405 0.0265994   
     length 2.07163   
     axis 0 0 0   XYZ
    dof rx ry rz
    limits (-20.0 45.0)
           (-30.0 30.0)
           (-30.0 30.0)
  end
  begin
     id 14 
     name lowerneck
     direction 0.0213282 0.988147 0.15202   
     length 1.75969   
     axis 0 0 0   XYZ
    dof rx ry rz
    limits (-20.0 45.0)
           (-30.0 30.0)
           (-30.0 30.0)
  end
  begin
     id 15 
     name upperneck
     direction -0.0546456 0.982624 -0.177379   
     length 1.79244   
     axis 0 0 0   XYZ
    dof rx ry rz
    limits (-20.0 45.0)
           (-30.0 30.0)
           (-30.0 30.0)
  end
  begin
     id 16
     name head
     direction -0.0199987 0.996855 -0.076686  
     length 1.80555  
     axis 0 0 0   XYZ
    dof rx ry rz
    limits (-20.0 45.0)
           (-30.0 30.0)
           (-30.0 30.0)
  end
  begin
     id 17 
     name lclavicle
     direction 0.929565 0.363219 -0.063096  
     length 3.55722  
     axis 0 0 0   XYZ
    dof ry rz
    limits (-20.0 10.0)
           (0.0 20.0)
  end
  begin
     id 18 
     name lhumerus
     direction 1 -4.48993e-011 -2.36203e-027   
     length 4.92785   
     axis 180 -30 -90   XYZ
    dof rx ry rz
    limits (-60.0 90.0)
           (-90.0 90.0)
           (-90.0 90.0)
  end
  begin
     id 19
     name lradius
     direction 1 -4.48947e-011 2.02997e-027   
     length 3.44052   
     axis 180 -30 -90   XYZ
    dof rx
    limits (-10.0 170.0)
  end
  begin
     id 20
     name lwrist
     direction 1 -4.48962e-011 1.45991e-027   
     length 1.72026   
     axis 1.49639e-024 90 90   XYZ
    dof ry
    limits (-180.0 0.0)
 end
  begin
     id 21 
     name lhand
     direction 1 -4.48984e-011 2.91906e-027   
     length 0.654326   
     axis -1.863e-015 90 90   XYZ
    dof rx rz
    limits (-90.0 90.0)
           (-45.0 45.0)
  end
  begin
     id 22 
     name lfingers
     direction 1 -4.48961e-011 5.83968e-027   
     length 0.527534   
     axis -3.72598e-015 90 90   XYZ
    dof rx
    limits (0.0 90.0)
  end
  begin
     id 23
     name lthumb
     direction 0.707107 -6.34963e-011 0.707107   
     length 0.757437   
     axis -90 45 -6.68868e-015   XYZ
    dof rx rz
    limits (-45.0 45.0)
           (-45.0 45.0)
  end
  begin
     id 24 
     name rclavicle
     direction -0.902944 0.422599 -0.0781198   
     length 3.54432  
     axis 0 0 0   XYZ 
    dof ry rz
    limits (-10.0 20.0)
           (-20.0 0.0)
  end
  begin
     id 25 
     name rhumerus
     direction -1 -4.48953e-011 -4.75835e-028  
     length 5.09181   
     axis 180 30 90   XYZ
    dof rx ry rz
    limits (-90.0 60.0)
           (-90.0 90.0)
           (-90.0 90.0)
  end
  begin
     id 26 
     name rradius
     direction -1 -4.48986e-011 -3.25889e-027   
     length 3.49865   
     axis 180 30 90   XYZ
    dof rx
    limits (-10.0 170.0)
  end
  begin
     id 27 
     name rwrist
     direction -1 -4.48963e-011 1.45989e-027   
     length 1.74933   
     axis 1.49639e-024 -90 -90   XYZ
    dof ry
    limits (-180.0 0.0)
  end
  begin
     id 28
     name rhand
     direction -1 -4.49003e-011 2.91844e-027   
     length 0.66641   
     axis -1.863e-015 -90 -90   XYZ
    dof rx rz
    limits (-90.0 90.0)
           (-45.0 45.0)
  end
  begin
     id 29
     name rfingers
     direction -1 -4.48973e-011 5.83886e-027   
     length 0.537277   
     axis -3.72598e-015 -90 -90   XYZ
    dof rx
    limits (0.0 90.0)
  end
  begin
     id 30
     name rthumb
     direction -0.707107 -6.34976e-011 0.707107   
     length 0.771425   
     axis -90 -45 6.68868e-015   XYZ
    dof rx rz
    limits (-45.0 45.0)
           (-45.0 45.0)
  end
:hierarchy
  begin
    root lhipjoint rhipjoint lowerback
    lhipjoint lfemur
    lfemur ltibia
    ltibia lfoot
    lfoot ltoes
    rhipjoint rfemur
    rfemur rtibia
    rtibia rfoot
    rfoot rtoes
    lowerback upperback
    upperback thorax
    thorax lowerneck lclavicle rclavicle
    lowerneck upperneck
    upperneck head
    lclavicle lhumerus
    lhumerus lradius
    lradius lwrist
    lwrist lhand lthumb
    lhand lfingers
    rclavicle rhumerus
    rhumerus rradius
    rradius rwrist
    rwrist rhand rthumb
    rhand rfingers
  end

#!OML:ASF H:\LiuWeirdWalks\Patient Classification 1\Patient 1\Session 1\male.ASF
:FULLY-SPECIFIED
:DEGREES
49
root -0.167469 17.5787 -29.6437 4.27114 0.274213 -0.766497
lowerback 2.69318 -0.341309 -2.18052
upperback -1.70393 -0.475324 2.33239
thorax -3.22912 -0.16126 3.65845
lowerneck -19.4215 1.83111 6.17564
upperneck 24.0075 2.87568 -8.15829
head 11.2135 0.847409 -3.60056
rclavicle -3.36692e-015 1.15295e-014
rhumerus -38.6568 -14.6157 -75.3255
rradius 25.1604
rwrist -2.61661
rhand -15.0192 -2.19836
rfingers 7.12502
rthumb 11.1462 -31.8823
lclavicle -3.36692e-015 1.15295e-014
lhumerus -32.753 0.150179 87.1115
lradius 28.4946
lwrist 10.1577
lhand -12.1361 0.518174
lfingers 7.12502
lthumb 13.9259 30.0318
rfemur -9.62033 -1.19243 21.3787
rtibia 34.8399
rfoot -24.6431 -21.7459
rtoes -4.92268
lfemur -6.41019 -3.97449 -15.4255
ltibia 29.0194
lfoot -16.6077 19.6807
ltoes -8.77725
50
root -0.187363 17.573 -29.6076 4.38155 0.212495 -0.756744
lowerback 2.68845 -0.347094 -2.18046
upperback -1.66418 -0.483327 2.33139
thorax -3.18469 -0.166578 3.65732
lowerneck -19.621 1.88137 6.1597
upperneck 23.9621 2.94153 -8.16607
head 11.2414 0.870995 -3.5905
rclavicle 1.63997e-015 -3.97569e-015
rhumerus -38.5527 -14.4264 -75.481
rradius 25.151
rwrist -2.63508
rhand -15.054 -2.26126
rfingers 7.12502
rthumb 11.1127 -31.947
lclavicle 1.63997e-015 -3.97569e-015
lhumerus -32.7299 0.230188 87.0735
lradius 28.5527
lwrist 10.2252
lhand -12.1573 0.519085
lfingers 7.12502
lthumb 13.9054 30.0342
rfemur -9.58742 -1.12796 21.4391
rtibia 34.803
rfoot -24.7549 -21.7705
rtoes -4.90366
lfemur -6.46555 -4.00132 -15.3792
ltibia 29.1822
lfoot -16.6741 19.7761
ltoes -8.87864
51
root -0.206613 17.5668 -29.5696 4.50071 0.109177 -0.766417
lowerback 2.6635 -0.335125 -2.15863
upperback -1.62877 -0.466325 2.33444
thorax -3.13544 -0.159857 3.64657
lowerneck -19.7945 1.913 6.13115
upperneck 23.9328 2.98616 -8.16966
head 11.2681 0.884738 -3.58023
rclavicle 1.01629e-014 6.36111e-015
rhumerus -38.4795 -14.1983 -75.6424
rradius 25.1738
rwrist -2.70409
rhand -15.0976 -2.33856
rfingers 7.12502
rthumb 11.0706 -32.0266
lclavicle 1.01629e-014 6.36111e-015
lhumerus -32.7304 0.309935 87.0403
lradius 28.6128
lwrist 10.2722
lhand -12.1927 0.521498
lfingers 7.12502
lthumb 13.8713 30.0389
rfemur -9.5649 -1.0369 21.5148
rtibia 34.7668
rfoot -24.8487 -21.7932
rtoes -4.88024
lfemur -6.54103 -3.99178 -15.3172
ltibia 29.3877
lfoot -16.74 19.881
ltoes -9.01587
52
root -0.22598 17.5606 -29.5312 4.6354 0.00735751 -0.788412
lowerback 2.64226 -0.552956 -2.26476
upperback -1.62002 -0.753916 2.60537
thorax -3.08751 -0.299222 4.00282
lowerneck -19.9063 2.3505 6.17244
upperneck 23.8263 3.71035 -8.62045
head 11.3256 1.15795 -3.64119
rclavicle -1.68967e-015 6.36111e-015
rhumerus -38.1917 -13.0116 -75.8357
rradius 25.1653
rwrist -2.90921
rhand -15.1373 -2.41484
rfingers 7.12502
rthumb 11.0323 -32.1049
lclavicle -1.68967e-015 6.36111e-015
lhumerus -32.8966 1.38014 87.0233
lradius 28.7039
lwrist 10.137
lhand -12.2289 0.478577
lfingers 7.12502
lthumb 13.8364 29.9984
rfemur -9.56054 -0.943438 21.6061
rtibia 34.7302
rfoot -24.9169 -21.8305
rtoes -4.83166
lfemur -6.66182 -3.93074 -15.2349
ltibia 29.6496
lfoot -16.8182 19.9457
ltoes -9.18117
53
root -0.245114 17.5544 -29.4929 4.78088 -0.0868815 -0.835525
lowerback 2.63951 -0.712873 -2.29695
upperback -1.63026 -0.963171 2.81053
thorax -3.07512 -0.400985 4.24545
lowerneck -19.9526 2.6793 6.20894
upperneck 23.6978 4.25239 -8.9631
head 11.3463 1.36346 -3.68725
rclavicle -1.49089e-016 1.66979e-014
rhumerus -38.0153 -12.0568 -76.0055
rradius 25.18
rwrist -3.09133
rhand -15.1819 -2.46954
rfingers 7.12502
rthumb 10.9893 -32.1619
lclavicle -1.49089e-016 1.66979e-014
lhumerus -33.0712 2.2063 86.9892
lradius 28.7939
lwrist 10.0292
lhand -12.2212 0.40351
lfingers 7.12502
lthumb 13.8438 29.9228
rfemur -9.56864 -0.848884 21.7268
rtibia 34.6898
rfoot -24.9531 -21.8891
rtoes -4.76107
lfemur -6.82608 -3.84174 -15.1221
ltibia 29.9769
lfoot -16.9109 19.9819
ltoes -9.37338
54
root -0.264194 17.5484 -29.4544 4.93863 -0.169712 -0.895327
lowerback 2.62676 -0.860839 -2.29839
upperback -1.66327 -1.15541 2.99856
thorax -3.08133 -0.494434 4.45227
lowerneck -19.9027 2.9658 6.24257
upperneck 23.5504 4.7297 -9.27706
head 11.3365 1.54579 -3.73096
rclavicle 1.21756e-015 3.97569e-015
rhumerus -37.9351 -11.1044 -76.1789
rradius 25.2481
rwrist -3.33793
rhand -15.2383 -2.5357
rfingers 7.12502
rthumb 10.9349 -32.2309
lclavicle 1.21756e-015 3.97569e-015
lhumerus -33.2993 2.977 86.9415
lradius 28.8954
lwrist 9.90489
lhand -12.2138 0.328419
lfingers 7.12502
lthumb 13.8509 29.8472
rfemur -9.58797 -0.762596 21.8631
rtibia 34.644
rfoot -24.9642 -21.9597
rtoes -4.67024
lfemur -7.03662 -3.72711 -14.9914
ltibia 30.3713
lfoot -17.0166 19.9891
ltoes -9.59789
55
root -0.283108 17.5424 -29.4155 5.10016 -0.24409 -0.962643
lowerback 2.61957 -0.919127 -2.22989
upperback -1.71284 -1.2277 3.07939
thorax -3.12153 -0.529622 4.5021
lowerneck -19.809 3.08525 6.24156
upperneck 23.4203 4.92744 -9.39432
head 11.2921 1.62431 -3.73948
rclavicle -3.926e-015 7.95139e-015
rhumerus -38.0075 -10.5306 -76.3221
rradius 25.3373
rwrist -3.53892
rhand -15.2908 -2.56487
rfingers 7.12502
rthumb 10.8843 -32.2628
lclavicle -3.926e-015 7.95139e-015
lhumerus -33.5148 3.3595 86.8732
lradius 28.9854
lwrist 9.84173
lhand -12.1923 0.275643
lfingers 7.12502
lthumb 13.8716 29.793
rfemur -9.60589 -0.691537 22.0067
rtibia 34.5905
rfoot -24.9572 -22.0359
rtoes -4.57289
lfemur -7.28282 -3.597 -14.8513
ltibia 30.8316
lfoot -17.1303 19.976
ltoes -9.86576
56
root -0.301112 17.536 -29.3751 5.24039 -0.353306 -1.04984
lowerback 2.61474 -0.838592 -2.06784
upperback -1.75292 -1.11443 3.02253
thorax -3.1746 -0.475533 4.34576
lowerneck -19.653 2.97658 6.21602
upperneck 23.2608 4.74417 -9.28251
head 11.18 1.55848 -3.71732
rclavicle -4.42296e-015 2.38542e-015
rhumerus -38.2321 -10.489 -76.4229
rradius 25.4407
rwrist -3.65597
rhand -15.3354 -2.57194
rfingers 7.12502
rthumb 10.8412 -32.2721
lclavicle -4.42296e-015 2.38542e-015
lhumerus -33.682 3.21975 86.7977
lradius 29.064
lwrist 9.83355
lhand -12.1956 0.24612
lfingers 7.12502
lthumb 13.8686 29.7637
rfemur -9.59164 -0.616543 22.1612
rtibia 34.5267
rfoot -24.946 -22.09
rtoes -4.49045
lfemur -7.52798 -3.44221 -14.6998
ltibia 31.3549
lfoot -17.2245 19.9794
ltoes -10.1996
57
root -0.319136 17.5295 -29.3346 5.37225 -0.451702 -1.14978
lowerback 2.63506 -0.656246 -1.83448
upperback -1.79312 -0.865344 2.85712
thorax -3.25514 -0.356135 4.02934
lowerneck -19.4908 2.67802 6.14282
upperneck 23.1313 4.25245 -8.96429
head 11.0428 1.37306 -3.65857
rclavicle 1.61513e-014 -2.54444e-014
rhumerus -38.5614 -10.9054 -76.469
rradius 25.5291
rwrist -3.67306
rhand -15.3571 -2.5373
rfingers 7.12502
rthumb 10.8204 -32.2386
lclavicle 1.61513e-014 -2.54444e-014
lhumerus -33.8016 2.65353 86.7242
lradius 29.1328
lwrist 9.87935
lhand -12.2179 0.216019
lfingers 7.12502
lthumb 13.847 29.7351
rfemur -9.55863 -0.559295 22.3291
rtibia 34.4501
rfoot -24.9352 -22.1397
rtoes -4.41448
lfemur -7.80778 -3.29106 -14.5312
ltibia 31.9456
lfoot -17.2617 19.9774
ltoes -10.6413
58
root -0.336845 17.5231 -29.2935 5.48583 -0.552246 -1.25898
lowerback 2.6901 -0.445937 -1.57428
upperback -1.77169 -0.579246 2.67424
thorax -3.29122 -0.220982 3.67715
lowerneck -19.5 2.36072 6.06988
upperneck 22.9891 3.72088 -8.62331
head 10.9332 1.16762 -3.59688
rclavicle 3.18055e-015 -1.23246e-014
rhumerus -38.7767 -11.4657 -76.5027
rradius 25.593
rwrist -3.64444
rhand -15.3646 -2.51905
rfingers 7.12502
rthumb 10.813 -32.2207
lclavicle 3.18055e-015 -1.23246e-014
lhumerus -33.7884 2.01677 86.6654
lradius 29.198
lwrist 9.93113
lhand -12.276 0.201753
lfingers 7.12502
lthumb 13.791 29.7246
rfemur -9.49423 -0.514797 22.5028
rtibia 34.3575
rfoot -24.9227 -22.1809
rtoes -4.35937
lfemur -8.1076 -3.13654 -14.354
ltibia 32.6086
lfoot -17.2585 19.9676
ltoes -11.13
